# xmcd
#
# Track frame offsets: 
#        150
#        19824
#        38352
#        52470
#        68677
#        90073
#        108607
#        133709
#        155456
#        172585
#        192534
#
# Disc length: 2777 seconds
#
# Revision: 0
# Processed by: cddbd v1.5.2PL0 Copyright (c) Steve Scherf et al.
# Submitted via: ExactAudioCopy v0.95b3
#
DISCID=870ad70b
DTITLE=Alanis Morissette  - Flavors of Entanglement [Deluxe Edition] D
DTITLE=isc 1
DYEAR=1900
DGENRE=
TTITLE0=Citizen of the Planet
TTITLE1=Underneath
TTITLE2=Straitjacket
TTITLE3=Versions of Violence
TTITLE4=Not as We
TTITLE5=In Praise of the Vulnerable Man
TTITLE6=Moratorium
TTITLE7=Torch
TTITLE8=Giggling Again for No Reason
TTITLE9=Tapes
TTITLE10=Incomplete
EXTD=
EXTT0=
EXTT1=
EXTT2=
EXTT3=
EXTT4=
EXTT5=
EXTT6=
EXTT7=
EXTT8=
EXTT9=
EXTT10=
PLAYORDER=
